
<global>
amp_veltrack=0
ampeg_attack=0.005
ampeg_release=0.50
xf_cccurve=gain
xfin_hicc1=127
xfout_hicc1=127
xfout_locc1=127
</global>

<group>
group_label=FF

<region>
hikey=B1
hivel=127
lokey=A#1
loop_end=252897
loop_mode=loop_continuous
loop_start=85460
loop_xfade=31778
lovel=0
lpc=wyWdQYnVTMKkFEpC7RegwSgFq78VIBjA7i0xQcRv578S/U/Bn4wkQZGFdkCCkBDByLu6PwST60DWWLjApeV8vyJtE0CIHB3APqSwQNLhHsEeJjJBK3B8wItML8BDm/c/
lpc_rms=-17.30
offset=2252
pitch_keycenter=A#1
sample=Bass_sustain_FF_A#1.opus
</region>

<region>
hikey=B2
hivel=127
lokey=A#2
loop_end=273338
loop_mode=loop_continuous
loop_start=85588
loop_xfade=31826
lovel=0
lpc=ZyUsQWxhxMGx3p9Blw6/wJ8ND78WB389l9ewP+P6oT+uUZTA0w88QFtr/74eKik/oY8CwM89lT8O0RFALA0+wPskA0Daibu/dR4pv/4lnD9vY/O+7gPWPwdKHMC3vow/
lpc_rms=-21.41
offset=2210
pitch_keycenter=A#2
sample=Bass_sustain_FF_A#2.opus
</region>

<region>
hikey=B3
hivel=127
lokey=A#3
loop_end=270554
loop_mode=loop_continuous
loop_start=84657
loop_xfade=31480
lovel=0
lpc=IAdYQY4wAsKBr/FBpdVKwXrOXUAd9lvA3qWNQLjcVMAs4Tw/hHzXP41xIb+kRt6/Y+JrvbIdD0Cxd4Y+myBfwLTyFEDMkMM/YDIPwLnRgjypTq4/KBoXPwtOasA6eRVA
lpc_rms=-20.98
offset=1807
pitch_keycenter=A#3
sample=Bass_sustain_FF_A#3.opus
</region>

<region>
hikey=G5
hivel=127
lokey=A#4
loop_end=272516
loop_mode=loop_continuous
loop_start=84421
loop_xfade=31391
lovel=0
lpc=o/5jQQpdBMJl1thBe5/8wLNxej+zc4vAY8zJQNGrVcDAGxW+a0FCQLrqrsDZ6INA9ltJPhYRlsDJvmpACtdeQMAVEcAJSZvAKg2LQG5UHr/kjcu+gUJBQNPmqMDRHS9A
lpc_rms=-23.11
offset=2717
pitch_keycenter=A#4
sample=Bass_sustain_FF_A#4.opus
</region>

<region>
hikey=C#2
hivel=127
lokey=C2
loop_end=281667
loop_mode=loop_continuous
loop_start=91247
loop_xfade=33930
lovel=0
lpc=x7EDQdnplsHI545BJjkSwZwICUAn7hC/ilm6PzH8Oz9Dg4XALIZDQCaXTD/otjrAEbcqQNWNvL8jHhBAYyNFwLWbnj/kUPM+pykzvqw+rL9JB3I/Q6naPwQWMcDQQZE/
lpc_rms=-18.82
offset=557
pitch_keycenter=C2
sample=Bass_sustain_FF_C2.opus
tune=-24.00
</region>

<region>
hikey=C#3
hivel=127
lokey=C3
loop_end=280421
loop_mode=loop_continuous
loop_start=85339
loop_xfade=31733
lovel=0
lpc=Js07QYBJy8GZgJtB91jUwAzU4z+0FRzAs6pQQN2Qxb5Q8bu/zjWxvlFtX746KY8/RZ8qvxbcYD569OU/qjDBvwMe2T4DvI6/jCm0PyTT6r8ZQ4U/w6RiPnF6677F0ZU+
lpc_rms=-22.20
offset=2880
pitch_keycenter=C3
sample=Bass_sustain_FF_C3.opus
</region>

<region>
hikey=C#4
hivel=127
lokey=C4
loop_end=284621
loop_mode=loop_continuous
loop_start=87869
loop_xfade=32674
lovel=0
lpc=XofUQeldj8JG4JhC/S4fwlsBBkH1cx69Jm2aQG4D9sBwDUfAGe+MQfKlicFuTd1Aauemv2+HP8B2vvJAiQwWwTRpD0G8B82/CSvKwNGNy0Ca+xjA2jFbP7lNSMCJXiFA
lpc_rms=-17.92
offset=15188
sample=Bass_sustain_FF_C4.opus
</region>

<region>
hikey=D#2
hivel=127
lokey=D2
loop_end=271324
loop_mode=loop_continuous
loop_start=85399
loop_xfade=31755
lovel=0
lpc=s/8HQQw1msESI5hBxxAkwT4LA0Bbe50+UU6eP0Nosj6YgHjAvjxAQKa+nr684H2/4Bg9PwhWa79Y+lhAVNuRwIodJ0Ca76u/Ecj0P+wBdsCUMWRAMPTRvrWC1b/hU1w/
lpc_rms=-20.26
offset=3124
pitch_keycenter=D2
sample=Bass_sustain_FF_D2.opus
</region>

<region>
hikey=D#3
hivel=127
lokey=D3
loop_end=277560
loop_mode=loop_continuous
loop_start=88025
loop_xfade=32732
lovel=0
lpc=qvq9Qa1JfMLtUYRCvFgYwiuHkEELxFTBLq5EQXhbEsGHjMtAPuEav+h1A8Gq6uNA6jcxPzRKIcCNF0A9dNJUQBnbqsDMqLRAObnKwERAzUBa8a7A3KW+PzP/9j+vrXG/
lpc_rms=-22.43
offset=1092
pitch_keycenter=D3
sample=Bass_sustain_FF_D3.opus
</region>

<region>
hikey=F3
hivel=127
lokey=E3
loop_end=274139
loop_mode=loop_continuous
loop_start=85522
loop_xfade=31801
lovel=0
lpc=ma6yQeUjXcLBYEhCZ+G9wT4yTUEPst3ATGQuv2+2h0DN0pTAzic0QGvHsL/bXIk/COZZv0FtNcBzruBAm7zSPMV7eMCFjUDAAQEbQH34hD+dAHJAmkSMwBobzr+J7w9A
lpc_rms=-20.93
offset=3257
pitch_keycenter=E3
sample=Bass_sustain_FF_E3.opus
</region>

<region>
hikey=F4
hivel=127
lokey=E4
loop_end=285465
loop_mode=loop_continuous
loop_start=87565
loop_xfade=32561
lovel=0
lpc=1GdaQna59ML69stCt64owpjZZUHRFUnBS6uhQVL6lsG/kMBAlUoSQeb9csEC2TQ/V2lsQAq5lEAX5fg/4Vo4wRHLL0GuKqfAI+nTv/OUAsCslINBzKOOwSgNKb9rcABB
lpc_rms=-12.84
offset=6717
pitch_keycenter=E4
sample=Bass_sustain_FF_E4.opus
</region>

<region>
hikey=G2
hivel=127
lokey=F#2
loop_end=279484
loop_mode=loop_continuous
loop_start=86217
loop_xfade=32060
lovel=0
lpc=uko0QS8j0sECnchBEmlRwao1cUB3GgXAbJSNQOflzb+mE3vAI38KQAVWHUCrVWfAqT73P5cIqr8nHydAO4tav/ztTMDRO29Awv32v6zxpT9DG3jA0JvPQDRVn8DbYeQ/
lpc_rms=-18.43
pitch_keycenter=F#2
sample=Bass_sustain_FF_F#2.opus
</region>

<region>
hikey=G3
hivel=127
lokey=F#3
loop_end=280133
loop_mode=loop_continuous
loop_start=88308
loop_xfade=32837
lovel=0
lpc=HK8EQryIpcIZfZ1CprQvwsrVAEJeXgHCqBTnQVP0ksHVFZ2/30cXQaoyD8B4pUjAe2GFPxCzIkCy4rPADUmoQFB4i8CPARtBs9l3wWBhfEF6Z0nBpJIIQYPAxMBMsU1A
lpc_rms=-16.55
offset=1062
pitch_keycenter=F#3
sample=Bass_sustain_FF_F#3.opus
</region>

<region>
hikey=G4
hivel=127
lokey=F#4
loop_end=274536
loop_mode=loop_continuous
loop_start=85818
loop_xfade=31911
lovel=0
lpc=AgwoQplTwsIz3axCBpBDwsYX5kGZ11LBj1QiQdUuH8H8j5vAkRh5QRkFdcGvVl5BI0o1wfL79UCmdW7Ay3Y/v+bshUBoo2bADtAiwDubmUAyhZFAMVnuv+DKXMF89CtB
lpc_rms=-14.40
offset=3217
pitch_keycenter=F#4
sample=Bass_sustain_FF_F#4.opus
</region>

<region>
hikey=A2
hivel=127
lokey=G#2
loop_end=287174
loop_mode=loop_continuous
loop_start=88791
loop_xfade=33016
lovel=0
lpc=575YQdFXB8L5FhFC7Im3wdbR90BGXD+/KQyoP5hTK0DIABrBM1QJQe2Cc8Dzr9Q87YzCP/TDEcAmDJdAYvVQwDvxgr5UHNO+m64gQLImNsDmbay/FJTQQPreoMA1MZQ/
lpc_rms=-18.75
offset=13484
pitch_keycenter=G#2
sample=Bass_sustain_FF_G#2.opus
</region>

<region>
hikey=A3
hivel=127
lokey=G#3
loop_end=277332
loop_mode=loop_continuous
loop_start=86222
loop_xfade=32061
lovel=0
lpc=HXawQfX6aMJ4gXFCtqwFwsXtVUE5jrnA/R+TQGOgR8Cc0ZnAryg2QWJj38CF0gDAsEuHQHeVcL9nazzAGJ6cQL9RCcDRPTPAijN3QP84BsC3ETZA7L8lv6zkrMAuq4BA
lpc_rms=-19.39
offset=7501
pitch_keycenter=G#3
sample=Bass_sustain_FF_G#3.opus
</region>

<region>
hikey=A4
hivel=127
lokey=G#4
loop_end=280375
loop_mode=loop_continuous
loop_start=88364
loop_xfade=32858
lovel=0
lpc=k7vlQVK5Z8KcvBxCgCyAwalHlEFI9JPBKtFmQe8oG8GK15XAEKJLQUgJjcAwDaA+4ry8wG/aIUDPjbNA1yzcwBLCtUB+NrTAcT4uQKB1bz8UtIRAFoCewAgcQcCRX4tA
lpc_rms=-16.63
offset=5941
pitch_keycenter=G#4
sample=Bass_sustain_FF_G#4.opus
</region>

<region>
hikey=D#4
hivel=127
lokey=D4
loop_end=272579
loop_mode=loop_continuous
loop_start=83800
loop_xfade=31161
lovel=0
lpc=RCgeQqlmu8JhrqZCj54PwrpMakFrPoDB/BVrQd9m3sAdAB/ByB3jQfP6w8FkHuNAHkSqwNdspUAhG3hADo0iwdcdOkEZ8QK/zJp7wSznhEEKHbbAHzqMQAHfWMEA0xpB
lpc_rms=-14.58
offset=2686
pitch_keycenter=D4
sample=Bass_sustain_FF_C#4.opus
</region>

<region>
hikey=F2
hivel=127
lokey=E2
loop_end=260533
loop_mode=loop_continuous
loop_start=88041
loop_xfade=32737
lovel=0
lpc=iboGQQZclsGzIIZBLxYDwXswCkBXnjG/FKG2P6pWkj8WClnAvyFZP/KZmD/B+Y6/4AUiPxGrUD0eVIQ//maGv1XiIL9ZQSc/HQ0EvVuzqL72HBS/QbscQLQMEcANFk4/
lpc_rms=-20.25
offset=2677
pitch_keycenter=D#2
sample=Bass_sustain_FF_D#2.opus
</region>
</group>